<?xml version="1.0" standalone="no"?><!DOCTYPE svg PUBLIC "-//W3C//DTD SVG 1.1//EN" "http://www.w3.org/Graphics/SVG/1.1/DTD/svg11.dtd"><svg t="1494084825302" class="icon" style="" viewBox="0 0 1024 1024" version="1.1" xmlns="http://www.w3.org/2000/svg" p-id="2903" xmlns:xlink="http://www.w3.org/1999/xlink" width="256" height="256"><defs><style type="text/css"></style></defs><path d="M204.8 0 358.4 0 358.4 51.2 204.8 51.2 204.8 0ZM128 0 101.928711 0C45.988474 0 0 45.635038 0 101.928711L0 128 51.2 128 51.2 102.061961C51.2 73.971676 73.98125 51.2 102.061961 51.2L128 51.2 128 0ZM204.8 1024 358.4 1024 358.4 972.8 204.8 972.8 204.8 1024ZM128 1024 101.928711 1024C45.635038 1024 0 978.011525 0 922.071291L0 896 51.2 896 51.2 921.938038C51.2 950.018749 73.971676 972.8 102.061961 972.8L128 972.8 128 1024ZM435.2 0 588.8 0 588.8 51.2 435.2 51.2 435.2 0ZM435.2 1024 588.8 1024 588.8 972.8 435.2 972.8 435.2 1024ZM665.6 0 819.2 0 819.2 51.2 665.6 51.2 665.6 0ZM665.6 1024 819.2 1024 819.2 972.8 665.6 972.8 665.6 1024ZM896 0 922.071291 0C978.364964 0 1024 45.988474 1024 101.928711L1024 128 972.8 128 972.8 102.061961C972.8 73.98125 950.028324 51.2 921.938038 51.2L896 51.2 896 0ZM896 1024 922.071291 1024C978.011525 1024 1024 978.364964 1024 922.071291L1024 896 972.8 896 972.8 921.938038C972.8 950.028324 950.018749 972.8 921.938038 972.8L896 972.8 896 1024ZM1024 204.8 1024 358.4 972.8 358.4 972.8 204.8 1024 204.8ZM0 204.8 0 358.4 51.2 358.4 51.2 204.8 0 204.8ZM1024 435.2 1024 588.8 972.8 588.8 972.8 435.2 1024 435.2ZM0 435.2 0 588.8 51.2 588.8 51.2 435.2 0 435.2ZM1024 665.6 1024 819.2 972.8 819.2 972.8 665.6 1024 665.6ZM0 665.6 0 819.2 51.2 819.2 51.2 665.6 0 665.6Z" p-id="2904"></path></svg>
